<svg width="33" height="38" fill="none" xmlns="http://www.w3.org/2000/svg"><path d="M16.5 38C25.575 38 33 30.6452 33 21.6559c-9.075 0-16.5 7.2527-16.5 16.3441ZM4.74375 16.6505c0 2.5538 2.0625 4.4947 4.5375 4.4947.92815 0 1.85625-.3065 2.57815-.8172v.3064c0 2.5538 2.0625 4.4946 4.5375 4.4946 2.5781 0 4.5375-2.043 4.5375-4.4946v-.3064c.7218.5107 1.65.8172 2.5781.8172 2.5781 0 4.5375-2.0431 4.5375-4.4947 0-1.8387-1.0312-3.3709-2.5781-4.086 1.5469-.715 2.5781-2.2473 2.5781-4.08601 0-2.55376-2.0625-4.49462-4.5375-4.49462-.9281 0-1.8563.30645-2.5781.8172v-.30645C20.9344 1.94086 18.8719 0 16.3969 0c-2.5782 0-4.5375 2.04301-4.5375 4.49462v.30645c-.7219-.51075-1.65-.8172-2.57815-.8172-2.57813 0-4.5375 2.04301-4.5375 4.49462 0 1.83871 1.03125 3.37101 2.57813 4.08601-1.44375.7151-2.57813 2.2473-2.57813 4.086ZM16.5 7.96774c2.5781 0 4.5375 2.04306 4.5375 4.49466 0 2.5537-2.0625 4.4946-4.5375 4.4946-2.5781 0-4.5375-2.043-4.5375-4.4946S13.9219 7.96774 16.5 7.96774ZM0 21.6559C0 30.6452 7.425 38 16.5 38c0-9.0914-7.425-16.3441-16.5-16.3441Z" fill="#63D1BB"/></svg>